# xmcd
#
# Track frame offsets:
#	150
#	17515
#	33559
#	45392
#	61192
#	76949
#	94489
#	108192
#	123713
#	136291
#	152812
#	164368
#	180569
#
# Disc length: 2582 seconds
#
# Revision: 1
# Processed by: cddbd v1.4PL0 Copyright (c) Steve Scherf et al.
# Submitted via: audiograbber 1.81.02
#
DISCID=a10a140d
DTITLE=Speed Limit - No 7
DYEAR=2002
DGENRE=Country
TTITLE0=Just Too See You Smile
TTITLE1=Fallin'
TTITLE2=You Don't Need To Knock
TTITLE3=Getting Nowhere
TTITLE4=Be Mine (14th day of February)
TTITLE5=His First Taste Of Texas
TTITLE6=More Of Your Love
TTITLE7=Keep On Dreamin'
TTITLE8=Little Did He Know
TTITLE9=If You Came Back From Heaven
TTITLE10=Millie
TTITLE11=Everythings A WAltz
TTITLE12=K.I.S.S.I.N.G.
EXTD=
EXTT0=
EXTT1=
EXTT2=
EXTT3=
EXTT4=
EXTT5=
EXTT6=
EXTT7=
EXTT8=
EXTT9=
EXTT10=
EXTT11=
EXTT12=
PLAYORDER=
